/* XPM */
static char *f23183531a9d413b9ac37b2a02ab5ef3GGV780zCe0L3ie9I[] = {
/* columns rows colors chars-per-pixel */
"32 32 135 2 ",
"   c #413741",
".  c #453B44",
"X  c #483E46",
"o  c #473D48",
"O  c #493F49",
"+  c #494047",
"@  c #4C424B",
"#  c #50464E",
"$  c #52484F",
"%  c #514750",
"&  c #544B52",
"*  c #584F56",
"=  c #5B5157",
"-  c #5B525A",
";  c #60575C",
":  c #63595E",
">  c #615760",
",  c #655C62",
"<  c #695F65",
"1  c #695F68",
"2  c #6A6166",
"3  c #6D636B",
"4  c #71666E",
"5  c #72696E",
"6  c #6F6770",
"7  c #756B72",
"8  c #786F75",
"9  c #7B7176",
"0  c #7D747A",
"q  c #80777D",
"w  c #837A7E",
"e  c #857C81",
"r  c #887F83",
"t  c #878086",
"y  c #8B8285",
"u  c #8E878C",
"i  c #8D8489",
"p  c #8E898A",
"a  c #90868D",
"s  c #91878F",
"d  c #90878B",
"f  c #92898A",
"g  c #91888C",
"h  c #90888D",
"j  c #92898C",
"k  c #938B8C",
"l  c #90898E",
"z  c #92898F",
"x  c #938A8F",
"c  c #948B8C",
"v  c #948B8F",
"b  c #938D8F",
"n  c #958D8E",
"m  c #948C8F",
"M  c #958C8F",
"N  c #968D8F",
"B  c #938A8E",
"V  c #948B90",
"C  c #958C90",
"Z  c #958C91",
"A  c #978E91",
"S  c #958D92",
"D  c #968D92",
"F  c #968D93",
"G  c #968E92",
"H  c #978E93",
"J  c #968D92",
"K  c #988F91",
"L  c #988F94",
"P  c #988F93",
"I  c #979097",
"U  c #999093",
"Y  c #999094",
"T  c #989194",
"R  c #999194",
"E  c #999095",
"W  c #9A9194",
"Q  c #9A9195",
"!  c #9B9294",
"~  c #9B9295",
"^  c #999096",
"/  c #999196",
"(  c #9A9196",
")  c #9A9197",
"_  c #9B9197",
"`  c #9A9296",
"'  c #9B9296",
"]  c #9B9396",
"[  c #9B9297",
"{  c #9C9396",
"}  c #9C9397",
"|  c #9C9497",
" . c #9D9497",
".. c #9A9196",
"X. c #9B9198",
"o. c #9B9298",
"O. c #9C9398",
"+. c #9C9399",
"@. c #9B9498",
"#. c #9C9598",
"$. c #9C9499",
"%. c #9D9499",
"&. c #9D9599",
"*. c #9E9598",
"=. c #9D949A",
"-. c #9C959A",
";. c #9E949A",
":. c #9E959A",
">. c #9F979A",
",. c #9F969B",
"<. c #9F969C",
"1. c #9E979C",
"2. c #9D9499",
"3. c #9F989D",
"4. c #A0979D",
"5. c #A1989C",
"6. c #A1999D",
"7. c #A19A9D",
"8. c #A09B9D",
"9. c #A29A9D",
"0. c #A1999E",
"q. c #A29A9E",
"w. c #A29C9D",
"e. c #A39C9F",
"r. c #A29A9D",
"t. c #A39CA0",
"y. c #A49CA1",
"u. c #A59DA2",
"i. c #A59EA3",
"p. c #A69EA3",
"a. c #A79FA4",
"s. c #A49DA0",
"d. c #A7A0A3",
"f. c #A6A0A2",
"g. c #A8A0A5",
/* pixels */
"y S T T T e.d.g.a.a.y.=.I - y T %.q.u.u.T 3.-.4 w T H T a y = q ",
"n f U K S n } O.=.X.H I u = q } %.T T O.T U -.- 7 8.T O.T S & 0 ",
"i w w 0 9 w i y e i Z I s * 0 <.H 0 q 0 t i p , 5 U e i } c & q ",
"0 7 0 w 7 8 q 8 8 q r s i & 0 %.i 7 0 e u u p > 5 U 0 i U f & q ",
"q 7 8 0 w q 9 7 7 8 q r y & q <.e 0 e r i s S > 4 U w i n d * e ",
"t y r e 0 9 0 8 7 8 0 e e & r i r i r t t t u - < r w e y y = 9 ",
"* = % @ @ O O o o o o o O @ - = - - - & % @ @ % . X O O # % @ * ",
"2 3 7 0 0 0 @ 1 0 e e r r e 0 8 6 6 6 6 3 * & 6 3 3 7 4 3 1 2 , ",
"T O.4.4.4.r @ q } L X.T T T }  . .} } U %.> = 8.u.w.y.y.<.X.L T ",
"T H V T 4.r @ q K L } O.} K j j  .K i y n < * 8.%.r e s s i H ) ",
"s r e i O.r @ 0 K j K U K T z S n f y r y : & 8.T e 0 e q 0 i V ",
"r 6 1 8 i e # 0 e 9 r j n z T H j i r r y ; & 8.Z e i u q q i a ",
"0 8 1 7 0 e % 7 4 3 3 1 3 0 0 q i y e r e ; - S i r r u r q i i ",
"& & % % O & @ @ O o . o O O O O # @ # # @ @ # & @ % % @ O O @ @ ",
"1 1 1 1 6 1 1 1 1 1 - & 0 0 0 8   6 3 4 3 6 7 3 3 1 > - - O - , ",
"a I 4.4.;.4.t.;.L a > * L u.<.e @ u 4.u.u.y.y.u.y.<.X.T 0 & u %.",
"r N P A s F P L } c : # w q q 8 @ r y.L i c K U K n j n 9 & f 5.",
"y d y q 7 9 r j 4.K : @ y q q 8 O q } e w i j n y w w w 0 & r  .",
"d w r w e q w c c f ; X f w w w + q K w e K S r r 9 q w 9 & i d ",
"y y r w 0 w q r y y : X y f r q + r ! y w d j s w w r y 8 * y r ",
"y w w q q w e e y c < @ r d r q @ r O.j f d i u i y i u 8 = i r ",
"q 7 4 2 1 1 7 8 8 q : $ e r e 8 & e r 0 0 0 q q q 0 q q 5 & y q ",
"X X + . o . . . . o . . o o O X X O o   .       . .     . X +   ",
"+ w 5.5.) I I ) L X.P w % e r r i i i q & 0 e e r t r i i i y w ",
"= r y.u.8.4.%.T ! ! f 2 $ y A L c d d 7 $ w 9.5.-.X.O.O.L Z a d ",
"* r y.Z z Z j n n *.y : # w P f w w w 8 $ q 5.} %.T Z Z Z y r i ",
"& e O.r r r y r f K f < + q c r w e w 8 $ q ! ! T z r r r r y i ",
"& e Z q 7 0 r r r K c 2 # w f w q y y 8 $ w N K S 0 q 0 q e y i ",
"% w r 4 < 4 8 r w y y 2 $ w f w w y y q & w ! f w 8 9 8 q q w r ",
"& e r 7 5 4 7 w q q y : & y y w r y w 8 & w ! f w q w q 8 q q w ",
"& e 8 7 3 7 7 8 q q 7 : $ w q q q q 5 5 $ q q q w 7 9 8 5 9 q q ",
"O @ . o o X o X + + . .   . . .   . . + . +   + + + X + . +   + "
};
